<svg xmlns="http://www.w3.org/2000/svg" viewBox="0 0 280 51.21"><defs><style>.cls-1{fill:#005c3f;}.cls-2{fill:#e87a00;}</style></defs><title>logo_txt</title><g id="レイヤー_2" data-name="レイヤー 2"><g id="contents"><path class="cls-1" d="M71.92,50.7h6.5c.3,0,.46-.23.52-.52l1-6.24a.44.44,0,0,0-.44-.52l-6.69-.37a.6.6,0,0,0-.64.51l-.76,6.61A.47.47,0,0,0,71.92,50.7Z"/><path class="cls-1" d="M28.43,16.76l-6.17,1.13a.5.5,0,0,0-.42.46L20.15,36.17l-1.91-17a.5.5,0,0,0-.6-.44L11.36,19.9a.52.52,0,0,0-.42.44L8.78,37.1,7.31,21.21a.51.51,0,0,0-.61-.45L.42,21.91A.51.51,0,0,0,0,22.5L4.56,50.26a.52.52,0,0,0,.51.44h7.2a.52.52,0,0,0,.51-.46l1.71-16.48L16,50.23a.5.5,0,0,0,.5.46h7.32a.51.51,0,0,0,.51-.43L29,17.34A.51.51,0,0,0,28.43,16.76Z"/><path class="cls-1" d="M60.84,16.85c-6-1.13-11.16.75-11.16,8.58V39.09c0,8.35,2.93,12.12,9.51,12.12s9.7-3.31,10.36-10.75l1.11-12.19C71.21,22.21,67.74,18.15,60.84,16.85Zm.71,23.72c-.19,3.86-1.4,3.85-2,3.85-.49,0-2-.08-1.83-4.17L58.15,27c.11-3,1-3.6,2.16-3.41,1.78.29,2.06,1.79,1.94,4.11Z"/><path class="cls-1" d="M74.78,21s-.9,7.29-.9,7.31,0,.07,0,.08S74.11,41,74.11,41a.47.47,0,0,0,.47.45l3.59.26a.67.67,0,0,0,.67-.43s3.83-11.78,3.83-11.8,0-.05,0-.06,1.29-7,1.29-7a.47.47,0,0,0-.44-.52L75.6,20.48C75.27,20.42,74.82,20.61,74.78,21Z"/><path class="cls-2" d="M48.88,50.07,41.67,16.69l3.5,2.81A.52.52,0,0,0,46,19L41.35.39a.52.52,0,0,0-1,.15l.6,11.08-2.77-2.8a.52.52,0,0,0-.87.25L28,50.08a.5.5,0,0,0,.49.62H35a.54.54,0,0,0,.52-.44l.74-4.93h4.21l.81,4.94a.51.51,0,0,0,.5.43h6.56a.5.5,0,0,0,.5-.63M37.16,39.42l1.41-8.63,1.19,8.63Z"/><rect x="229.62" y="33.84" width="9.8" height="2.86"/><rect x="262.9" y="33.84" width="9.8" height="2.86"/><rect x="229.62" y="38.72" width="9.8" height="2.86"/><path d="M277.08,36.27c0,5.21-1.9,11.51-12.3,11.51H262.9V50.7h1.88c10.4,0,15.22-5.52,15.22-14.43Z"/><path d="M243.8,36.27c0,5.21-1.9,11.51-12.3,11.51h-1.88V50.7h1.88c10.4,0,15.22-5.52,15.22-14.43Z"/><path d="M195.68,47.75V33.84h-3V50.7h2c9.21,0,14.67-4.82,15.18-13.27h-2.92C206.39,44.8,201.63,47.48,195.68,47.75Z"/><rect x="154.15" y="40.75" width="15.18" height="3.04"/><rect x="211.57" y="40.75" width="15.18" height="3.04"/><polygon points="137.35 34.66 137.35 37.58 149.09 37.58 149.09 46.96 137.35 46.96 137.35 49.88 152.24 49.88 152.24 34.66 137.35 34.66"/><path d="M91.31,33.84v8h3.2V36.76h11.32c-.25,3.66-1,6.14-2.64,7.79-1.78,1.85-4.57,2.79-9.18,3.12v3c5.53-.43,8.94-1.7,11.29-4.12C107.83,44,109,40,109.06,33.84Z"/><path d="M132.23,39.44a2.83,2.83,0,1,0,2.83,2.83A2.83,2.83,0,0,0,132.23,39.44Z"/><path d="M188.6,38.12a3.84,3.84,0,0,1-1.18.19,3.71,3.71,0,0,1-3.31-2h-2.5V33.18h-3v3.09h-7.2v2.92h7.2V50.7h3V39.19h7Z"/><path d="M187.42,31.79a2.82,2.82,0,1,0,2.83,2.8A2.81,2.81,0,0,0,187.42,31.79Zm0,4.48a1.67,1.67,0,0,1-1.65-1.68,1.65,1.65,0,1,1,1.65,1.68Z"/><path d="M170.93,47.22V50.7c4.71-1.69,5.55-6.19,5.57-9.45h-3C173.48,43.79,172.9,46,170.93,47.22Z"/><path d="M186.64,41.18h-3c0,3.3.89,7.88,5.74,9.52V47.26C187.29,46.05,186.67,43.8,186.64,41.18Z"/><polygon points="248.32 37.74 248.32 40.08 257.71 40.08 257.71 42.95 248.61 42.95 248.61 45.28 257.71 45.28 257.71 48.36 248.08 48.36 248.08 50.7 260.34 50.7 260.34 37.74 248.32 37.74"/><path d="M123.15,33.18h-2.92v3.09H110.15v2.92h8.35a19.31,19.31,0,0,1-8.36,6.57v3.13a22.63,22.63,0,0,0,10.09-7.2v6.09h-3.76V50.7h3.76a2.92,2.92,0,0,0,2.92-2.92V39.19h4.52V36.27h-4.52Z"/><path d="M97.09,25.64a7.62,7.62,0,0,0,2.83-2,9.74,9.74,0,0,1-1-2.64c-.2.29-.28.42-.41.59l-1.07-1.33c.2-.27.27-.34.36-.48H96.24c-.13.12-.32.33-.82.79H97.5v1.21A8.79,8.79,0,0,1,95.93,23v.23c1.2-.13,1.73-.19,2.31-.28v1.35c-.47.09-.82.14-2.31.32v1.31c0,.86-.26,1.19-1.23,1.19H93l-.27-1.43h1.34c.34,0,.39-.08.39-.36v-.56c-.38,0-2.3.21-2.74.23l-.1-1.45c.71,0,1.3-.07,2.84-.19v-.83h.35a4.17,4.17,0,0,0,.78-.73H93.82a13.27,13.27,0,0,1-1.55.94l-.7-1.35a12.32,12.32,0,0,0,2.64-1.64H91.73V18.37h2.2v-1H92V16.05h1.9v-1h1.44v1H96.8v.73a12.32,12.32,0,0,0,.71-1.39l1.33.61a14,14,0,0,1-1.44,2.37h.72v.87A13,13,0,0,0,99.39,15l1.5.13c0,.41-.13,1-.27,1.69h3.07v1.61h-.59a11.73,11.73,0,0,1-1.32,5.14,11.42,11.42,0,0,0,2.13,1.95L103,27.11A10.64,10.64,0,0,1,100.8,25a11.4,11.4,0,0,1-2.7,2.13ZM95.3,17.38v1h.31a12.17,12.17,0,0,0,.79-1Zm4.88,1.09c-.12.3-.18.46-.25.61a9.13,9.13,0,0,0,.91,3.12,10.22,10.22,0,0,0,.78-3.73Z"/><path d="M114.8,20a10.5,10.5,0,0,0-1-.91c-1.16.12-5.79.45-8.86.47l-.1-1.39h2.37c.3-.43.48-.73.61-1h-3.33V15.87h5.23v-.8h1.58v.8h5.25v1.36h-2.82A14.48,14.48,0,0,1,116.16,19Zm.28,5.87a1.1,1.1,0,0,1-1.22,1.23h-2.37l-.32-1.45h2c.27,0,.36,0,.36-.29v-.55h-6v2.29h-1.59V20.05h9.21Zm-1.58-4.7h-6v.72h6Zm0,1.8h-6v.73h6Zm-1.08-5.77h-2.83c-.39.6-.41.63-.64.94,1.11,0,2.08-.08,3.21-.13-.2-.1-.23-.13-.62-.36Z"/><path d="M123.57,26.73c-4.4,0-6-1.61-6-3.59s1.68-3.38,4-4.13c-.13-1-.43-3.42-.43-3.42H123s.19,1.86.33,3a29.78,29.78,0,0,1,4.71-.52v1.69c-4.74.1-8.63,1.17-8.63,3.27,0,1.41,1.57,2.06,4.26,2.06a25,25,0,0,0,4.52-.47v1.72A34.35,34.35,0,0,1,123.57,26.73Z"/><path d="M129.75,26.11V24.47h4.6V18H130.5V16.34h9.76V18h-4.08v6.51h4.87v1.64Z"/><path d="M142.47,17.77V16a45.91,45.91,0,0,1,5.51.74v1.83A40.68,40.68,0,0,0,142.47,17.77Zm.15,8.78V24.81c4.6-.37,7.72-1.76,8.33-7h1.87C152.24,24,148.56,26.32,142.62,26.55Z"/><path d="M155.39,26.74V25.09c2.91-.44,4.85-1.49,6.07-3.08a37.36,37.36,0,0,0-5.23-1V19.63a7.37,7.37,0,0,1-2.45,1.76V19.57a7.23,7.23,0,0,0,2.77-3.71h8.51V16C164.84,21.57,162.61,26,155.39,26.74Zm2.35-9.26a10.25,10.25,0,0,1-1.34,2,44.36,44.36,0,0,1,5.94,1.06,10.6,10.6,0,0,0,.79-3Z"/><path d="M173,22.43a10.16,10.16,0,0,1-6.71,4.35V25.11a8.59,8.59,0,0,0,5.17-3.42,24.32,24.32,0,0,0-4.35-1.59V18.4a35.21,35.21,0,0,1,5.13,1.82,14.52,14.52,0,0,0,1.13-4.64h1.81A16.55,16.55,0,0,1,173.8,21a32,32,0,0,1,3.35,1.91v2.08A33,33,0,0,0,173,22.43Z"/><path d="M184.24,26.61V25a3.9,3.9,0,0,0,3.81-4.09,3.29,3.29,0,0,0-2.85-3.38c-.41,3.16-1.06,5.89-2,7.37a2.29,2.29,0,0,1-2,1.15c-1.31,0-2.87-1.5-2.87-4.15a5.83,5.83,0,0,1,6-6c3.47,0,5.43,2.16,5.43,5.07C189.79,24.88,187.08,26.48,184.24,26.61ZM180,21.89c0,1.51.76,2.41,1.2,2.41.28,0,.56-.19,1-1.12a22,22,0,0,0,1.38-5.72A4.27,4.27,0,0,0,180,21.89Z"/><path d="M190.76,15.5h6.74v1.26h-6.74Zm.3,5.17h6.18v5.51a.83.83,0,0,1-.86.93h-1.16l-.18-1.3h.74c.19,0,.2-.1.2-.19V23.49h-1a.56.56,0,0,1-.59-.62V21.78H194a3.1,3.1,0,0,1-.72,2l-.83-.57a2,2,0,0,0,.7-1.42h-.73v5.33h-1.31Zm.32-3.31H197V20.1h-5.57ZM195.7,24v1h-.92v1.7h-1.17v-1.7h-1V24Zm-2.91-5.64v.74h2.72v-.74Zm2.49,3.44v.57c0,.18.1.23.24.23H196v-.8Zm6.38,5.34c0-.25,0-.39,0-.94a24.74,24.74,0,0,1-4,.75l-.15-1.62c.56,0,1.09-.08,1.91-.18V22.66h-1.77V16.93h1.77V15.09h1.38v1.84h1.79v5.73h-1.84v2.28l.69-.13c-.05-.38-.11-.73-.24-1.38l1.13-.2a15.87,15.87,0,0,1,.64,3.71Zm-2.86-8.76v2.85h.65V18.36Zm1.95,0v2.85h.66V18.36Z"/><path d="M214.87,20.09a15.36,15.36,0,0,1-1.94-1v1h-6.62V19.05a15.51,15.51,0,0,1-2,1l-.84-1.61a12.31,12.31,0,0,0,5.35-3.41h1.63a12.14,12.14,0,0,0,5.34,3.41Zm-.46,1.1v5.68h-9.68V21.19Zm-1.64,1.45h-6.42v2.78h6.42Zm-.5-4a12.89,12.89,0,0,1-2.7-2.28,11.69,11.69,0,0,1-2.64,2.28Z"/></g></g></svg>